<?xml version="1.0" encoding="UTF-8" standalone="no"?>
<!DOCTYPE svg PUBLIC "-//W3C//DTD SVG 1.1//EN" "http://www.w3.org/Graphics/SVG/1.1/DTD/svg11.dtd">
<svg version="1.1" xmlns="http://www.w3.org/2000/svg" xmlns:xlink="http://www.w3.org/1999/xlink" preserveAspectRatio="xMidYMid meet" viewBox="2.0000000000000013 -1 22.000000000000004 28.000000000000004" width="18" height="24"><defs><path d="M15 12L15 14L10 14L10 8L12 8L12 12L15 12ZM19.93 11C19.68 8.99 18.71 7.21 17.28 5.91C16 4.74 16.06 3.66 15.43 0C14.64 0 8.36 0 7.57 0C6.95 3.66 7 4.74 5.72 5.91C4.05 7.43 3 9.61 3 12.03C3 14.45 4.05 16.64 5.72 18.16C7 19.32 6.95 20.42 7.57 24C8.36 24 14.64 24 15.43 24C16.05 20.42 16 19.32 17.28 18.16C18.73 16.84 19.7 15.03 19.94 13C20.01 13 20.36 13 21 13L21 11C20.36 11 20 11 19.93 11ZM5 12C5 8.41 7.91 5.5 11.5 5.5C15.09 5.5 18 8.41 18 12C18 15.59 15.09 18.5 11.5 18.5C7.91 18.5 5 15.59 5 12Z" id="a2AKIXr3Qo"></path></defs><g><g><use xlink:href="#a2AKIXr3Qo" opacity="1" fill="#ffffff" fill-opacity="1"></use><g><use xlink:href="#a2AKIXr3Qo" opacity="1" fill-opacity="0" stroke="#000000" stroke-width="1" stroke-opacity="0"></use></g></g></g></svg>